<?xml version="1.0" encoding="UTF-8" standalone="no"?><!DOCTYPE svg PUBLIC "-//W3C//DTD SVG 1.1//EN" "http://www.w3.org/Graphics/SVG/1.1/DTD/svg11.dtd"><svg width="100%" height="100%" viewBox="0 0 63 73" version="1.1" xmlns="http://www.w3.org/2000/svg" xmlns:xlink="http://www.w3.org/1999/xlink" xml:space="preserve" xmlns:serif="http://www.serif.com/" style="fill-rule:evenodd;clip-rule:evenodd;stroke-linejoin:round;stroke-miterlimit:2;"><path d="M52.869,33.539c-1.853,-0.329 -3.737,-0.48 -5.593,-0.802c-5.509,-0.957 -10.839,-2.741 -15.901,-5.067c-6.663,3.241 -13.956,5.065 -21.33,5.832c-0.406,0.29 0.398,5.78 0.549,6.659c1.919,11.137 8.497,21.652 17.697,28.173c0.517,0.367 2.771,1.968 3.197,1.939c0.278,-0.019 1.612,-0.917 1.955,-1.143c11.628,-7.641 19.304,-21.634 19.426,-35.591m7.813,2.772l0,-5.219c0,-1.81 -1.61,-3.769 -3.281,-4.365c-1.233,-0.439 -6.303,-0.439 -7.532,0.021c-0.264,0.099 -1.484,0.8 -1.526,0.978l0.745,3.124c0.072,0.118 2.361,0.398 2.716,0.445c1.114,0.147 3.177,-0.228 3.266,1.307c0.013,0.223 -0.122,0.356 -0.122,0.401l0,3.308l5.734,-0Zm-58.514,-5.366c-0.197,1.659 0.146,3.668 0,5.366l5.733,-0l0,-3.308c0,-0.051 -0.14,-0.176 -0.143,-0.308c-0.032,-1.612 2.167,-1.252 3.287,-1.4c0.356,-0.047 2.645,-0.327 2.716,-0.445l0.745,-3.124c-0.497,-0.438 -1.126,-0.84 -1.76,-1.037c-1.244,-0.389 -6.078,-0.397 -7.298,0.038c-1.782,0.636 -3.058,2.344 -3.28,4.218m44.839,-0.368c-0.758,-4.128 -3.849,-7.696 -7.859,-8.972c-2.845,-0.906 -11.807,-0.887 -14.754,-0.19c-4.306,1.018 -7.633,4.748 -8.553,9.014c3.807,-0.53 7.646,-1.711 11.213,-3.12c1.489,-0.588 2.898,-1.423 4.432,-1.869c4.962,2.3 10.139,4.082 15.521,5.137m6.29,-13.194c-4.853,0.598 -2.996,8.2 1.705,6.265c3.457,-1.423 2.015,-6.724 -1.705,-6.265m-44.547,-0c-4.148,0.511 -3.563,6.754 0.541,6.584c4.481,-0.186 3.945,-7.137 -0.541,-6.584m21.909,-15.284c-10.899,1.027 -8.771,17.897 2.272,15.945c9.793,-1.731 7.951,-16.908 -2.272,-15.945m5.912,16.862c4.473,0.405 8.551,2.89 10.808,6.768l2.57,-1.181c-3.992,-4.034 -0.063,-10.703 5.407,-9.008c3.869,1.2 4.922,6.197 2.091,9.008c2.955,0.801 5.059,3.327 5.298,6.392c0.112,1.429 0.195,5.145 -0.013,6.466c-0.062,0.389 -0.395,0.883 -0.804,0.96l-7.267,0.011c-1.619,13.002 -9.051,25.088 -19.896,32.37c-0.691,0.463 -2.098,1.495 -2.793,1.763c-0.964,0.373 -2.336,-0.751 -3.181,-1.294c-11.205,-7.202 -18.955,-19.587 -20.603,-32.839l-7.488,-0.083c-0.362,-0.272 -0.54,-0.569 -0.594,-1.024c-0.195,-1.653 -0.138,-6.403 0.306,-7.934c0.677,-2.337 2.655,-4.156 4.99,-4.788c-3.903,-3.997 -0.185,-10.586 5.293,-9.04c3.966,1.119 5.118,6.201 2.205,9.04l2.644,1.177c2.124,-3.911 6.331,-6.355 10.735,-6.764c-4.777,-3.098 -6.54,-9.153 -3.499,-14.156c3.891,-6.404 13.398,-6.409 17.29,-0c3.042,5.01 1.281,11.048 -3.499,14.156" style="fill:#fff;fill-rule:nonzero;"/><path d="M48.17,37.354c-5.782,-0.9 -11.419,-2.553 -16.794,-4.832c-5.283,2.344 -10.9,3.905 -16.617,4.811c-0.139,0.009 -0.096,0.12 -0.107,0.225c-0.072,0.675 0.49,3.092 0.673,3.9c2.138,9.477 8.059,18.281 16.147,23.645c9.175,-6.286 15.527,-16.621 16.698,-27.749m-16.927,-7.046c0.398,-0.065 5.344,2.018 6.281,2.33c3.995,1.329 8.123,2.188 12.279,2.864c0.558,0.185 0.588,0.666 0.598,1.175c0.076,3.839 -2.291,10.746 -4.001,14.242c-2.829,5.785 -8.345,12.588 -13.839,16.005c-0.838,0.522 -0.966,0.769 -1.918,0.234c-4.447,-2.496 -9.781,-8.661 -12.422,-13.012c-2.694,-4.441 -5.67,-12.111 -5.772,-17.317c-0.011,-0.547 -0.004,-1.121 0.595,-1.33c4.955,-0.74 9.748,-1.924 14.448,-3.636c0.942,-0.343 2.974,-1.429 3.751,-1.555" style="fill:#fff;fill-rule:nonzero;"/><path d="M40.207,40.747l-10.099,9.762c-0.164,0.066 -0.332,0.081 -0.507,0.063c-0.767,-0.08 -2.946,-2.83 -3.76,-3.458c-0.65,-0.503 -1.329,-0.767 -1.979,-0.062c-0.62,0.671 -0.35,1.279 0.135,1.906c0.677,0.877 3.695,3.917 4.562,4.554c0.52,0.382 1.045,0.586 1.698,0.376l11.32,-11.173c0.514,-1.104 -0.171,-2.102 -1.37,-1.968m-0.441,-2.048c3.145,-0.535 5.334,2.828 3.35,5.408l-11.494,11.44c-1.175,0.749 -2.929,0.613 -4.069,-0.148c-0.744,-0.496 -5.016,-4.769 -5.513,-5.513c-1.229,-1.842 -0.525,-4.395 1.597,-5.117c2.88,-0.979 4.258,1.686 6.097,3.301l8.744,-8.748c0.343,-0.277 0.857,-0.55 1.288,-0.623" style="fill:#fff;fill-rule:nonzero;"/></svg>