<?xml version="1.0" encoding="UTF-8" standalone="no"?><!DOCTYPE svg PUBLIC "-//W3C//DTD SVG 1.1//EN" "http://www.w3.org/Graphics/SVG/1.1/DTD/svg11.dtd"><svg width="100%" height="100%" viewBox="0 0 48 48" version="1.1" xmlns="http://www.w3.org/2000/svg" xmlns:xlink="http://www.w3.org/1999/xlink" xml:space="preserve" xmlns:serif="http://www.serif.com/" style="fill-rule:evenodd;clip-rule:evenodd;stroke-linejoin:round;stroke-miterlimit:2;"><path d="M2.152,10.301l-0.155,0.154l0,32.332c0,1.81 1.731,3.121 3.452,3.043l37.247,-0.006c1.652,0.013 3.251,-1.325 3.251,-3.037l0,-32.332l-0.154,-0.154l-43.641,0Zm-0.155,-5.303c-0.096,1.015 0.072,2.162 0,3.192l0.155,0.155l43.641,0l0.154,-0.155l0,-3.192c0,-1.682 -1.618,-3.056 -3.251,-3.036l-37.247,-0.006c-1.917,0.023 -3.266,1.093 -3.452,3.042m2.558,-4.963l38.559,-0.035c2.272,0.171 4.065,1.61 4.642,3.81c0.252,13.353 0.252,26.811 0,40.165c-0.481,1.815 -1.833,3.193 -3.662,3.655c-13.378,0.251 -26.863,0.252 -40.243,0c-1.819,-0.48 -3.2,-1.829 -3.663,-3.655c-0.251,-13.352 -0.251,-26.813 0,-40.165c0.518,-2.071 2.252,-3.53 4.367,-3.775" style="fill:#fff;fill-rule:nonzero;"/><path d="M8.366,33.698c-0.577,0.119 -1.227,0.898 -1.304,1.478c-0.268,2.032 2.219,2.987 3.337,1.478c1.102,-1.489 -0.229,-3.327 -2.033,-2.956m1.59,-1.891c3.714,1.135 3.716,6.216 0.033,7.423c-0.212,0.907 0.457,3.657 -1.115,3.578c-1.529,-0.076 -0.838,-2.538 -1.01,-3.508c-1.063,-0.515 -2.091,-1.149 -2.54,-2.304c-0.882,-2.266 0.323,-4.479 2.559,-5.243l-0.005,-17.385c0.17,-1.496 2.021,-1.367 2.062,0.104l0.016,17.335Z" style="fill:#fff;fill-rule:nonzero;"/><path d="M16.419,26.182c-2.704,0.293 -1.752,4.617 0.922,3.602c1.987,-0.754 1.284,-3.841 -0.922,-3.602m1.271,-1.785c3.781,0.979 3.695,6.32 -0.017,7.384l0.007,9.874c-0.108,1.452 -1.837,1.537 -2.067,0.105l0.009,-9.979c-3.762,-1.132 -3.774,-6.33 -0,-7.436l-0.006,-9.977c0.158,-1.381 1.807,-1.425 2.054,-0.094l0.02,10.123Z" style="fill:#fff;fill-rule:nonzero;"/><path d="M23.945,18.769c-1.871,0.319 -1.896,3.267 -0.001,3.658c2.919,0.604 3.158,-4.196 0.001,-3.658m1.489,-1.895c2.519,0.747 3.725,3.821 2.089,5.98c-0.58,0.765 -1.262,1.093 -2.093,1.515l-0.109,17.808c-0.593,1.055 -1.905,0.667 -1.968,-0.522l0.001,-17.198c0,-0.09 -0.034,-0.148 -0.103,-0.205c-0.209,-0.173 -0.899,-0.365 -1.288,-0.671c-2.476,-1.947 -1.578,-5.849 1.373,-6.707c0.169,-0.949 -0.469,-3.398 0.921,-3.569c1.681,-0.205 1.029,2.608 1.177,3.569" style="fill:#fff;fill-rule:nonzero;"/><path d="M40.892,36.455l-8.511,-0l-0.155,0.154l0,4.171l8.666,-0l0,-4.325Zm1.409,-1.406c0.437,0.406 0.604,1.09 0.653,1.665c0.085,1 0.123,4.271 -0.287,5.065c-0.39,0.753 -1.239,1.002 -2.029,1.064c-2.151,0.168 -6.122,0.188 -8.256,-0.006c-1.14,-0.103 -2.013,-0.69 -2.121,-1.899c-0.095,-1.074 -0.127,-3.7 0.014,-4.731c0.142,-1.044 0.997,-1.626 1.999,-1.712c2.769,-0.237 5.868,0.188 8.674,-0.001c0.427,0.027 1.043,0.268 1.353,0.555" style="fill:#fff;fill-rule:nonzero;"/><path d="M31.063,13.311l11.229,0.072c1.077,0.735 0.688,1.832 -0.628,1.962c-3.216,0.32 -6.94,-0.235 -10.211,-0c-1.311,-0.032 -1.681,-1.593 -0.39,-2.034" style="fill:#fff;fill-rule:nonzero;"/><path d="M31.064,17.636l11.009,-0.018c1.057,0.2 1.137,1.821 0.008,1.952l-11.273,-0.08c-0.839,-0.457 -0.714,-1.679 0.256,-1.854" style="fill:#fff;fill-rule:nonzero;"/><path d="M30.958,26.283l11.373,0.035c0.918,0.464 0.673,1.78 -0.353,1.902c-3.4,-0.284 -7.405,0.372 -10.732,-0.002c-1.207,-0.136 -1.36,-1.481 -0.288,-1.935" style="fill:#fff;fill-rule:nonzero;"/><path d="M42.614,23.654c-0.174,0.162 -0.501,0.222 -0.736,0.244c-3.406,0.31 -7.281,-0.245 -10.738,-0.003c-1.005,-0.119 -1.215,-1.396 -0.332,-1.881l11.17,-0.08c0.824,0.046 1.243,1.152 0.636,1.72" style="fill:#fff;fill-rule:nonzero;"/><path d="M30.855,30.607l11.226,-0.024c1.124,0.131 1.123,1.809 -0.208,1.959c-3.295,0.371 -7.263,-0.279 -10.629,0.003c-1.12,-0.134 -1.344,-1.378 -0.389,-1.938" style="fill:#fff;fill-rule:nonzero;"/><path d="M39.721,4.468c0.637,0.635 0.094,1.806 -0.837,1.718l-17.235,-0.002c-1.059,-0.126 -1.331,-1.309 -0.46,-1.905l18.182,-0.026c0.121,0.057 0.256,0.121 0.35,0.215" style="fill:#fff;fill-rule:nonzero;"/><path d="M10.84,4.247c0.836,-0.187 1.758,0.057 1.687,1.058c-0.081,1.128 -2.135,1.227 -2.357,0.079c-0.094,-0.483 0.172,-1.026 0.67,-1.137" style="fill:#fff;fill-rule:nonzero;"/><path d="M14.657,4.247c0.721,-0.21 1.833,0.04 1.791,0.955c-0.065,1.451 -2.718,1.292 -2.358,-0.285c0.045,-0.197 0.378,-0.615 0.567,-0.67" style="fill:#fff;fill-rule:nonzero;"/><path d="M8.358,4.468c1.16,1.161 -1.177,2.562 -1.966,1.191c-0.726,-1.262 1.246,-1.911 1.966,-1.191" style="fill:#fff;fill-rule:nonzero;"/></svg>