<?xml version="1.0" encoding="UTF-8" standalone="no"?><!DOCTYPE svg PUBLIC "-//W3C//DTD SVG 1.1//EN" "http://www.w3.org/Graphics/SVG/1.1/DTD/svg11.dtd"><svg width="100%" height="100%" viewBox="0 0 51 54" version="1.1" xmlns="http://www.w3.org/2000/svg" xmlns:xlink="http://www.w3.org/1999/xlink" xml:space="preserve" xmlns:serif="http://www.serif.com/" style="fill-rule:evenodd;clip-rule:evenodd;stroke-linejoin:round;stroke-miterlimit:2;"><path d="M7.762,8.666l-0,-5.847l-5.211,5.847l5.211,0Zm31.055,-7.1l-29.492,0l-0,8.092c-0,0.123 -0.451,0.574 -0.573,0.574l-7.243,0l-0,41.766l37.152,0l0.156,-0.156l-0,-50.276Zm1.146,-1.566l0.339,0.444l0.084,52.03c0.002,0.407 -0.205,0.756 -0.527,0.986l-39.392,0l-0.422,-0.673c0.133,-14.236 -0.161,-28.481 0.011,-42.716c0.006,-0.563 -0.202,-0.679 0.202,-1.249l8.025,-8.822l31.68,0Z" style="fill:#fff;fill-rule:nonzero;"/><path d="M48.821,44.794l-5.002,0l2.657,5.953l2.345,-5.953Zm-3.335,-35.919l-2.084,0l0,34.457l5.732,0l0,-34.457l-2.085,0l0,28.453c0,0.667 -1.563,0.667 -1.563,0l0,-28.453Zm3.648,-7.309l-5.732,0l0,5.847l5.732,0l0,-5.847Zm1.146,-1.566l0.422,0.673l0.062,43.427l-3.429,8.76l-0.598,0.6l-0.521,0c-0.339,-0.227 -0.47,-0.62 -0.644,-0.973c-1.357,-2.758 -2.51,-5.666 -3.733,-8.476l0.077,-43.673l0.34,-0.338l8.024,0Z" style="fill:#fff;fill-rule:nonzero;"/><path d="M31.939,17.124l-4.012,-0c-0.464,-0 -1.136,-1.865 -1.427,-2.329c-0.445,-0.707 -1.347,-1.256 -1.011,-2.098c0.39,-0.977 1.349,-2.106 1.824,-3.085c0.049,-0.126 -0.088,-0.197 -0.173,-0.261c-0.395,-0.293 -1.39,-0.808 -1.868,-1.052c-0.194,-0.099 -0.703,-0.4 -0.878,-0.372c-0.413,0.558 -1.558,3.192 -2.044,3.399c-0.424,0.18 -1.994,-0.185 -2.661,-0.158c-0.592,0.025 -1.669,0.44 -2.139,0.065c-0.452,-0.36 -1.741,-3.187 -1.927,-3.2l-2.763,1.535c-0.072,0.444 1.867,2.88 1.869,3.536c0.002,0.388 -1.02,1.544 -1.29,2.034c-0.257,0.466 -0.809,2.299 -1.248,2.299l-3.7,-0l-0,3.237l3.908,-0c0.417,-0 1.056,1.803 1.321,2.226c0.232,0.37 1.279,1.459 1.318,1.712c0.102,0.65 -1.813,2.922 -1.85,3.781l2.751,1.472l1.883,-3.34c0.463,-0.562 0.913,-0.219 1.451,-0.208c0.53,0.01 1.155,0.034 1.675,-0.001c0.858,-0.056 1.509,-0.622 2.116,0.275c0.256,0.379 1.576,3.016 1.747,3.056l2.747,-1.46c0.197,-0.283 -2.012,-3.19 -1.983,-3.908c0.015,-0.381 0.844,-1.258 1.103,-1.723c0.217,-0.389 0.835,-2.195 1.145,-2.195l4.116,-0l-0,-3.237Zm-3.427,-1.578c0.158,0.138 3.612,-0.073 4.214,0.006c0.413,0.055 0.626,0.378 0.674,0.787c0.18,1.528 -0.119,3.423 -0.024,4.991c-0.065,0.328 -0.458,0.543 -0.766,0.59c-0.601,0.093 -3.944,-0.116 -4.098,0.02c-0.196,0.962 -0.853,1.715 -1.352,2.527l2.093,3.65c0.179,0.351 0.063,0.729 -0.236,0.958l-4.239,2.437c-0.313,0.06 -0.678,0.058 -0.908,-0.195l-1.887,-3.33c-0.301,-0.382 -1.384,-0.002 -1.871,0.004c-0.447,0.005 -0.844,-0.183 -1.283,-0.09l-2.108,3.68c-0.379,0.33 -0.837,0.047 -1.215,-0.133c-0.958,-0.456 -2.698,-1.458 -3.567,-2.064c-0.472,-0.328 -0.787,-0.496 -0.554,-1.164l1.902,-3.319c-0.598,-0.833 -1.273,-1.642 -1.579,-2.647c-0.224,-0.144 -3.441,0.087 -4.097,-0.02c-0.383,-0.062 -0.568,-0.363 -0.635,-0.719c-0.174,-0.916 -0.135,-3.56 -0.052,-4.552c0.054,-0.655 0.182,-1.017 0.888,-1.095c0.587,-0.065 3.476,0.114 3.684,-0.015c0.368,-0.981 0.837,-1.922 1.455,-2.767l-1.965,-3.741c-0.001,-0.325 0.232,-0.598 0.492,-0.766l4.282,-2.401c0.12,-0.039 0.227,-0.01 0.342,0.025c0.628,0.192 2.014,3.516 2.351,3.594l3.064,-0.029c0.232,-0.115 1.57,-2.731 1.915,-3.203c0.523,-0.716 0.663,-0.611 1.422,-0.25c1.347,0.642 2.685,1.64 4.014,2.347l0.162,0.787l-1.969,3.464c0.485,0.87 1.214,1.634 1.451,2.633" style="fill:#fff;fill-rule:nonzero;"/><path d="M6.169,34.897l28.165,0.032c0.765,0.714 0.202,1.566 -0.776,1.515l-26.79,0.001c-1.014,0.063 -1.605,-1.054 -0.599,-1.548" style="fill:#fff;fill-rule:nonzero;"/><path d="M6.168,42.936l28.165,0.033c0.72,0.616 0.26,1.559 -0.671,1.516l-27,0.001c-0.988,-0.017 -1.409,-1.015 -0.494,-1.55" style="fill:#fff;fill-rule:nonzero;"/><path d="M31.284,39.08c0.485,0.49 0.063,1.406 -0.643,1.333l-20.954,-0.002c-1.161,-0.134 -0.889,-1.645 0.205,-1.575l20.645,0c0.209,0.002 0.608,0.103 0.747,0.244" style="fill:#fff;fill-rule:nonzero;"/><path d="M9.607,46.904l21.031,-0.024c1.054,0.123 1.187,1.446 0.104,1.571l-21.055,0c-1.003,-0.116 -0.946,-1.255 -0.08,-1.547" style="fill:#fff;fill-rule:nonzero;"/><path d="M19.616,16.003c-3.209,0.419 -3.124,5.351 0.183,5.61c3.999,0.313 4.079,-6.166 -0.183,-5.61m-0.312,-1.462c5.807,-0.792 6.873,7.368 1.718,8.508c-5.958,1.318 -7.293,-7.748 -1.718,-8.508" style="fill:#fff;fill-rule:nonzero;"/></svg>