<?xml version="1.0" encoding="UTF-8" standalone="no"?><!DOCTYPE svg PUBLIC "-//W3C//DTD SVG 1.1//EN" "http://www.w3.org/Graphics/SVG/1.1/DTD/svg11.dtd"><svg width="100%" height="100%" viewBox="0 0 60 60" version="1.1" xmlns="http://www.w3.org/2000/svg" xmlns:xlink="http://www.w3.org/1999/xlink" xml:space="preserve" xmlns:serif="http://www.serif.com/" style="fill-rule:evenodd;clip-rule:evenodd;stroke-linejoin:round;stroke-miterlimit:2;"><path d="M57.002,42.356c-3.103,-0.624 -5.883,-2.315 -8.194,-4.424c-2.307,2.112 -5.093,3.8 -8.194,4.424c-0.106,4.677 2.132,9.308 5.229,12.706c0.7,0.768 2.185,2.355 3.287,2.126c0.924,-0.192 2.717,-2.179 3.341,-2.939c2.739,-3.337 4.635,-7.497 4.531,-11.893m-29.319,-5.646l4.697,4.465c1.592,-1.671 2.299,-4.224 1.793,-6.469c-0.095,-0.11 -1.456,-0.47 -1.606,-0.425c-0.251,0.076 -0.975,0.695 -1.315,0.882c-1.143,0.628 -2.337,1.125 -3.569,1.547m-5.006,-0.056c-1.191,-0.325 -2.334,-0.82 -3.41,-1.418c-0.342,-0.19 -1.208,-0.91 -1.464,-0.963c-0.347,-0.073 -1.222,0.372 -1.628,0.421c-0.449,2.317 0.268,4.718 1.801,6.484l4.701,-4.524Zm14.55,-15.684l-23.977,-0l-0,2.73c-0,2.329 3.16,6.405 4.887,7.901c4.557,3.948 9.083,4.089 13.79,0.285c2.161,-1.745 5.3,-5.892 5.3,-8.767l-0,-2.149Zm-24.82,-5.313c-1.884,0.171 -2.047,2.559 -0.265,2.993l26.077,-0c1.966,-0.43 1.538,-3.085 -0.47,-3.021l-25.342,0.028Zm24.587,-2.237c-0.583,-4.337 -3.647,-8.034 -7.739,-9.527c-0.161,3.172 0.151,6.645 1.512,9.527l6.227,-0Zm-23.511,-0l6.459,-0c1.339,-2.993 1.582,-6.403 1.512,-9.644c-4.135,1.444 -7.569,5.211 -7.971,9.644m13.385,-11.036l-3.026,-0c-0.012,2.968 -0.105,5.945 -0.735,8.85c-0.16,0.739 -0.453,1.436 -0.546,2.186l5.587,-0c-1.135,-3.563 -1.372,-7.307 -1.28,-11.036m21.416,57.153c-1.719,-0.448 -2.836,-1.692 -4.134,-2.785l-21.034,-0.033c-0.844,-0.093 -1.387,-0.855 -1.048,-1.682c0.067,-0.163 0.536,-0.611 0.668,-0.611l19.612,-0l-1.574,-2.553c-1.512,-2.714 -2.39,-5.765 -2.505,-8.884c-0.024,-0.663 -0.115,-2.04 0.408,-2.507c0.4,-0.356 3.325,-0.604 3.32,-0.983c-1.505,-1.565 -3.29,-2.908 -5.293,-3.777c0.031,2.786 -1.131,5.548 -2.973,7.607c-1.196,1.337 -1.674,0.757 -2.791,-0.227c-1.967,-1.734 -3.756,-3.901 -5.76,-5.634l-6.405,6.267c-1.288,1.199 -2.516,-0.832 -3.176,-1.818c-1.09,-1.631 -1.679,-3.245 -1.882,-5.208c-0.023,-0.225 0.131,-1.073 -0.173,-0.983c-0.97,0.288 -3.436,2.117 -4.253,2.842c-3.283,2.911 -6.861,9.522 -6.988,13.936c-0.051,1.808 0.944,1.828 2.504,1.927c2.721,0.172 5.596,-0.181 8.333,0.047c1.317,0.977 0.642,2.146 -0.875,2.276c-2.153,0.184 -7.372,0.19 -9.398,-0.272c-4.074,-0.928 -2.866,-5.295 -2.013,-8.212c2.151,-7.349 7.221,-13.546 14.723,-15.801c0.048,-0.175 -0.046,-0.192 -0.114,-0.29c-0.297,-0.427 -0.947,-0.972 -1.328,-1.463c-2.238,-2.884 -3.555,-6.18 -3.235,-9.897c-0.065,-0.215 -0.99,-0.705 -1.246,-0.965c-1.45,-1.473 -1.417,-3.933 0.041,-5.394c0.287,-0.288 1.271,-0.771 1.317,-0.835c0.095,-0.132 0.533,-2.614 0.721,-3.172c1.184,-3.521 4.135,-6.756 7.528,-8.285c0.505,-0.228 2.03,-0.626 2.292,-0.821c0.323,-0.239 0.265,-1.066 1.326,-1.259c0.713,-0.13 4.359,-0.118 5.015,0.052c0.355,0.092 0.741,0.378 0.953,0.674c0.15,0.209 0.213,0.57 0.258,0.615c0.066,0.066 1.451,0.48 1.762,0.623c4.704,2.16 7.954,6.372 8.474,11.581c3.211,1.21 3.252,5.614 0.211,7.071c0.366,4.556 -1.756,8.539 -4.769,11.765c3.68,1.075 6.899,3.238 9.484,6.023c0.645,-0.478 1.348,-0.877 1.977,-1.378c0.667,-0.531 1.884,-2.017 2.665,-1.968c0.583,0.038 1.794,1.406 2.346,1.852c1.335,1.08 3.021,2.114 4.651,2.677c0.762,0.263 2.78,0.493 3.139,0.933c0.424,0.518 0.329,1.812 0.301,2.497c-0.168,4.076 -1.665,7.825 -3.984,11.125c-1.498,2.133 -3.456,4.527 -6.03,5.307l-1.048,-0Z" style="fill:#fff;fill-rule:nonzero;"/><path d="M17.522,54.451c1.847,-0.426 2.024,2.243 0.326,2.238c-1.301,-0.003 -1.515,-1.964 -0.326,-2.238" style="fill:#fff;fill-rule:nonzero;"/><path d="M51.982,44.572c0.355,-0.046 0.785,0.173 1.011,0.449c0.533,0.65 0.223,1.172 -0.227,1.739c-1.08,1.364 -2.562,2.632 -3.675,3.998c-0.383,0.258 -0.695,0.385 -1.161,0.246c-0.255,-0.076 -2.425,-1.769 -2.541,-1.995c-0.477,-0.932 0.201,-2.009 1.268,-1.733c0.536,0.138 0.985,0.852 1.552,0.975c0.291,-0.057 2.59,-2.971 3.213,-3.414c0.171,-0.121 0.346,-0.238 0.56,-0.265" style="fill:#fff;fill-rule:nonzero;"/></svg>