<?xml version="1.0" encoding="UTF-8" standalone="no"?><!DOCTYPE svg PUBLIC "-//W3C//DTD SVG 1.1//EN" "http://www.w3.org/Graphics/SVG/1.1/DTD/svg11.dtd"><svg width="100%" height="100%" viewBox="0 0 42 49" version="1.1" xmlns="http://www.w3.org/2000/svg" xmlns:xlink="http://www.w3.org/1999/xlink" xml:space="preserve" xmlns:serif="http://www.serif.com/" style="fill-rule:evenodd;clip-rule:evenodd;stroke-linejoin:round;stroke-miterlimit:2;"><path d="M28.628,47.499l6.467,0c0.168,0 0.623,-0.585 0.623,-0.717l0,-10.758c-0.599,0.448 -1.554,3.698 -2.589,2.536c-0.217,-0.243 -0.258,-0.585 -0.115,-0.884l3.651,-6.291l-1.997,-1.154c-0.14,-0.039 -0.213,0.12 -0.276,0.215c-2.966,4.462 -5.341,9.716 -8.205,14.283c-0.252,0.767 -0.16,1.602 -0.049,2.388c1.103,-0.28 1.809,-0.795 2.434,-1.73c1.036,-1.549 1.836,-3.368 2.864,-4.934c0.86,-0.533 1.481,0.095 1.077,1.026c-0.756,1.74 -2.308,3.686 -3.217,5.396l-0.668,0.624Zm7.528,-19.983l-0.815,1.375l2.044,1.199l0.823,-1.375l-2.052,-1.199Zm3.777,-1.913l-2.105,-1.149l-0.96,1.764l2.05,1.195c0.177,-0.215 1.101,-1.694 1.015,-1.81m-38.036,23.33c-0.811,-0.245 -1.597,-0.84 -1.778,-1.715c-0.15,-0.726 -0.155,-4.542 -0.036,-5.307c0.121,-0.782 1.21,-0.802 1.384,-0.057c0.317,1.365 -0.172,3.5 0.052,4.922c0.037,0.234 0.413,0.723 0.618,0.723l22.563,0c-0.028,-0.745 -0.166,-1.5 -0.099,-2.251c0.141,-1.61 1.502,-2.991 2.111,-4.443l-3.881,0c-0.436,0 -0.751,-0.936 -0.235,-1.286c0.636,-0.432 3.968,0.035 4.912,-0.166l1.024,-1.607l-10.012,0c-0.492,0 -0.826,-1.197 -0.076,-1.415l10.883,-0.018l0.93,-1.627l-4.455,0c-0.747,0 -1.05,-1.063 -0.363,-1.414l5.679,-0.069l4.525,-7.724l0.081,-12.446c0.136,-0.869 1.431,-0.595 1.431,0.09l0,9.801c0.456,-0.303 0.794,-0.03 1.214,0.175c0.475,0.232 3.1,1.722 3.239,2.026c0.136,0.298 0.027,0.502 -0.089,0.768c-1.085,2.476 -3.195,5.014 -4.342,7.524c-0.143,4.653 0.18,9.359 -0.167,13.985c-0.285,0.812 -0.923,1.208 -1.675,1.531l-33.438,0Z" style="fill:#fff;fill-rule:nonzero;"/><path d="M1.971,-0l33.369,0.019c0.995,0.257 1.661,1.025 1.789,2.039c0.295,2.34 -0.168,5.141 0.03,7.531c0.028,0.873 -0.896,1.364 -1.42,0.55l-0.02,-7.821c-0.025,-0.414 -0.236,-0.761 -0.643,-0.888l-32.991,0.022l-0.498,0.46l-0.07,36.744c-0.097,0.814 -0.929,1 -1.389,0.331l-0.054,-36.96c0.102,-1.038 0.87,-1.856 1.897,-2.027" style="fill:#fff;fill-rule:nonzero;"/><path d="M5.702,7.645c-0.257,0.136 -0.443,0.402 -0.453,0.695c0.152,2.126 -0.195,4.51 -0.002,6.604c0.064,0.695 0.22,0.845 0.91,0.908c1.606,0.148 4.919,0.149 6.524,0.001c0.49,-0.045 0.765,-0.192 0.815,-0.716c0.214,-2.204 -0.175,-4.749 -0.001,-6.991c-0.008,-0.284 -0.239,-0.516 -0.526,-0.526l-7.267,0.025Zm-0.284,-1.431c2.443,0.159 5.348,-0.292 7.737,-0.023c0.891,0.1 1.672,0.875 1.773,1.769c0.262,2.316 -0.2,5.096 0.004,7.463c-0.161,1.09 -0.984,1.753 -2.065,1.859c-1.712,0.169 -5.069,0.141 -6.805,0.005c-1.245,-0.098 -2.117,-0.777 -2.247,-2.061c-0.17,-1.676 -0.158,-5.291 0.001,-6.978c0.092,-0.981 0.615,-1.781 1.602,-2.034" style="fill:#fff;fill-rule:nonzero;"/><path d="M5.897,33.083c-0.481,0.085 -0.594,0.333 -0.646,0.79c-0.233,2.081 0.176,4.57 -0.002,6.696c0.059,0.447 0.255,0.676 0.715,0.72c2.208,0.214 4.759,-0.175 7.005,0c0.284,-0.009 0.518,-0.239 0.527,-0.526c-0.225,-2.203 0.282,-4.951 -0,-7.086c-0.05,-0.375 -0.358,-0.587 -0.721,-0.619c-2.067,0.241 -4.904,-0.325 -6.878,0.025m-0.092,-1.43c1.579,-0.199 5.456,-0.185 7.062,-0.026c1.065,0.105 1.827,0.721 2.063,1.765c-0.167,2.408 0.215,5.091 0.002,7.465c-0.087,0.972 -0.814,1.723 -1.776,1.861c-2.412,-0.162 -5.099,0.215 -7.477,0.004c-1.128,-0.101 -1.763,-0.995 -1.863,-2.062c-0.154,-1.634 -0.183,-5.462 0.009,-7.063c0.131,-1.096 0.907,-1.809 1.98,-1.944" style="fill:#fff;fill-rule:nonzero;"/><path d="M5.798,20.363c-0.319,0.087 -0.541,0.363 -0.55,0.695c0.154,2.158 -0.196,4.574 -0.002,6.7c0.052,0.568 0.245,0.761 0.814,0.813c1.662,0.151 5.054,0.151 6.716,-0.001c0.552,-0.05 0.669,-0.175 0.719,-0.717c0.153,-1.681 0.153,-5.116 0,-6.798c-0.051,-0.551 -0.176,-0.667 -0.719,-0.717c-2.206,-0.201 -4.738,0.142 -6.978,0.025m-0.187,-1.43c2.257,-0.323 5.126,0.19 7.449,-0.025c0.955,0.121 1.728,0.808 1.868,1.769c-0.163,2.407 0.215,5.089 0.003,7.463c-0.091,1.016 -0.882,1.729 -1.871,1.861c-2.325,-0.151 -4.895,0.199 -7.19,0.003c-1.169,-0.1 -1.941,-0.908 -2.056,-2.06c-0.161,-1.615 -0.175,-5.471 0.01,-7.065c0.109,-0.947 0.815,-1.807 1.787,-1.946" style="fill:#fff;fill-rule:nonzero;"/><path d="M18.541,10.801l11.479,-0.022c0.974,0.112 0.945,1.339 -0,1.438l-11.641,-0.052c-0.595,-0.398 -0.535,-1.134 0.162,-1.364" style="fill:#fff;fill-rule:nonzero;"/><path d="M30.517,23.718c0.44,0.372 0.163,1.167 -0.399,1.219l-11.503,-0.003c-1.043,-0.121 -0.715,-1.49 0.289,-1.436c3.504,0.222 7.369,-0.295 10.83,-0.004c0.219,0.018 0.621,0.087 0.783,0.224" style="fill:#fff;fill-rule:nonzero;"/><path d="M25.63,20.458l7.064,-0.015c0.867,0.138 0.853,1.28 0.011,1.434l-7.089,-0.011c-0.756,-0.118 -0.725,-1.242 0.014,-1.408" style="fill:#fff;fill-rule:nonzero;"/><path d="M25.535,7.741l7.259,-0.018c0.772,0.243 0.683,1.304 -0.1,1.426l-6.982,-0c-0.812,-0.127 -0.852,-1.254 -0.177,-1.408" style="fill:#fff;fill-rule:nonzero;"/><path d="M22.523,27.87c-0.414,-0.415 -0.19,-1.117 0.41,-1.211c0.644,-0.1 3.367,-0.099 4.013,-0c0.866,0.134 0.75,1.291 -0.096,1.424c-0.687,0.108 -3.009,0.088 -3.733,0.008c-0.159,-0.018 -0.488,-0.115 -0.594,-0.221" style="fill:#fff;fill-rule:nonzero;"/><path d="M23.046,13.863c0.591,-0.106 3.196,-0.106 3.787,-0c0.811,0.145 0.98,1.095 0.212,1.409l-4.211,-0c-0.816,-0.333 -0.606,-1.262 0.212,-1.409" style="fill:#fff;fill-rule:nonzero;"/><path d="M18.541,20.458c0.401,-0.09 3.581,-0.089 3.983,0c0.737,0.165 0.716,1.28 0.019,1.412c-0.435,0.083 -3.586,0.083 -4.02,0c-0.678,-0.129 -0.766,-1.236 0.018,-1.412" style="fill:#fff;fill-rule:nonzero;"/><path d="M18.444,7.74l4.098,-0.018c0.774,0.246 0.681,1.306 -0.099,1.427c-0.618,0.096 -3.204,0.096 -3.822,0c-0.746,-0.116 -0.87,-1.09 -0.177,-1.409" style="fill:#fff;fill-rule:nonzero;"/><path d="M18.735,33.179c0.635,-0.106 2.959,-0.106 3.595,-0c0.98,0.163 0.982,1.284 0.208,1.405c-1.193,0.188 -2.849,-0.11 -4.093,-0.014c-0.786,-0.37 -0.554,-1.251 0.29,-1.391" style="fill:#fff;fill-rule:nonzero;"/><path d="M18.541,39.391c0.709,-0.159 2.361,-0.017 1.741,1.069c-0.299,0.524 -2.073,0.543 -2.268,-0.105c-0.129,-0.427 0.081,-0.864 0.527,-0.964" style="fill:#fff;fill-rule:nonzero;"/><path d="M18.444,26.673c0.487,-0.142 1.792,-0.133 1.928,0.529c0.194,0.948 -1.03,0.963 -1.662,0.888c-0.9,-0.107 -0.927,-1.225 -0.266,-1.417" style="fill:#fff;fill-rule:nonzero;"/><path d="M18.735,13.863c0.534,-0.09 1.517,-0.053 1.639,0.621c0.167,0.922 -1.162,0.862 -1.759,0.792c-0.895,-0.104 -0.87,-1.246 0.12,-1.413" style="fill:#fff;fill-rule:nonzero;"/><path d="M11.262,9.745c0.479,-0.07 1.011,0.543 0.719,1.011l-2.826,2.821c-0.461,0.414 -1.986,-1.187 -2.107,-1.482c-0.172,-0.418 -0.104,-0.865 0.336,-1.052c0.745,-0.315 1.29,0.826 1.542,0.782c0.576,-0.386 1.719,-1.99 2.336,-2.08" style="fill:#fff;fill-rule:nonzero;"/><path d="M11.166,35.276c0.595,-0.123 1.074,0.459 0.815,1.011l-2.714,2.742c-0.278,0.159 -0.47,0.159 -0.75,0c-0.121,-0.07 -1.447,-1.381 -1.491,-1.476c-0.127,-0.277 -0.071,-0.773 0.199,-0.945c0.842,-0.534 1.417,0.798 1.702,0.748c0.53,-0.337 1.736,-1.976 2.239,-2.08" style="fill:#fff;fill-rule:nonzero;"/><path d="M11.067,22.562c0.645,-0.196 1.178,0.401 0.914,1.008l-2.73,2.724c-0.505,0.488 -2.07,-1.16 -2.202,-1.481c-0.153,-0.369 -0.076,-0.939 0.36,-1.026c0.824,-0.164 0.903,0.545 1.518,0.852c0.256,-0.045 1.77,-1.965 2.14,-2.077" style="fill:#fff;fill-rule:nonzero;"/></svg>