<?xml version="1.0" encoding="UTF-8" standalone="no"?><!DOCTYPE svg PUBLIC "-//W3C//DTD SVG 1.1//EN" "http://www.w3.org/Graphics/SVG/1.1/DTD/svg11.dtd"><svg width="100%" height="100%" viewBox="0 0 53 53" version="1.1" xmlns="http://www.w3.org/2000/svg" xmlns:xlink="http://www.w3.org/1999/xlink" xml:space="preserve" xmlns:serif="http://www.serif.com/" style="fill-rule:evenodd;clip-rule:evenodd;stroke-linejoin:round;stroke-miterlimit:2;"><path d="M22.726,50.582l0,-6.794c0,-0.04 -0.242,-0.651 -0.286,-0.737c-0.231,-0.443 -0.68,-0.824 -1.149,-0.999c-0.628,-0.235 -3.289,-0.249 -3.972,-0.085c-0.562,0.136 -1.554,1.036 -1.554,1.616l0,6.999l6.961,0Zm-14.025,0l0,-6.999c0,-0.556 -1.006,-1.484 -1.554,-1.616c-0.683,-0.164 -3.344,-0.15 -3.972,0.085c-0.594,0.222 -1.435,1.091 -1.435,1.736l0,6.794l6.961,0Zm8.636,-11.275c2.48,2.506 6.219,-1.373 3.7,-3.744c-2.502,-2.354 -6.045,1.374 -3.7,3.744m-12.553,-4.434c-3.252,0.514 -2.631,5.778 0.975,5.161c3.193,-0.546 2.521,-5.714 -0.975,-5.161m4.429,4.368l2.969,0l0,-14.815l1.842,0l0,14.815l1.229,-0.001c-0.626,-1.328 -0.508,-2.838 0.264,-4.077c0.319,-0.512 0.774,-0.784 1.064,-1.288l0.097,-19.419c0.136,-0.332 0.912,-0.679 1.27,-0.878c2.625,-1.457 5.413,-2.642 8.002,-4.172c0.746,-0.681 0.354,-1.883 -0.717,-1.847c-0.463,0.015 -1.332,0.543 -1.793,0.773c-2.441,1.216 -4.814,2.582 -7.263,3.785c-2.71,0.41 -6.965,-0.753 -9.208,1.028c-1.246,0.989 -1.459,2.387 -1.902,3.823c-0.507,1.644 -1.542,4.527 -1.767,6.104c-0.109,0.76 0.404,1.482 1.208,1.315c0.524,-0.109 0.683,-0.435 0.864,-0.883c1.033,-2.556 1.548,-5.572 2.575,-8.162c0.287,-0.69 1.307,-0.664 1.58,0.035l0.1,22.08l-0.414,1.784Zm3.666,-33.997c-2.36,0.192 -3.229,3.232 -1.36,4.671c1.732,1.334 4.29,0.032 4.197,-2.146c-0.064,-1.481 -1.35,-2.647 -2.837,-2.525m-12.879,38.288c0.327,-1.164 0.965,-2.417 2.149,-2.862c0.084,-0.117 -0.488,-0.703 -0.596,-0.885c-1.996,-3.393 0.863,-7.436 4.713,-6.542c0.624,0.144 1.048,0.458 1.616,0.685l0,-12.363l-1.188,3.258c-1.673,2.525 -5.498,1.189 -5.148,-1.867c1.722,-4.254 1.435,-11.455 7.114,-12.415c0.33,-0.055 0.731,0.113 0.961,-0.163c-1.553,-1.88 -0.939,-4.885 1.094,-6.164c3.706,-2.331 8.045,1.428 6.381,5.397l7.548,-3.756c3.457,-0.585 4.754,3.823 1.769,5.342l-8.089,4.136l0,17.88c4.337,-0.828 6.907,4.178 3.991,7.406c1.124,0.55 1.995,1.835 2.14,3.077c0.282,2.412 -0.189,5.294 0.014,7.757c-0.004,0.424 -0.332,0.625 -0.617,0.866l-9.213,0c-0.295,-0.234 -0.628,-0.3 -0.616,-0.764c0.188,-2.557 -0.248,-5.456 0.002,-7.971c0.105,-1.052 0.719,-1.88 1.433,-2.606l-6.45,0c0.702,0.746 1.327,1.543 1.432,2.606c0.25,2.515 -0.185,5.414 0.003,7.971c0.012,0.464 -0.321,0.53 -0.616,0.764l-9.827,0l0,-8.787Z" style="fill:#fff;fill-rule:nonzero;"/><path d="M52.414,0.621l-0,21.456c-0.151,0.199 -0.511,0.613 -0.768,0.613l-31.581,-0l-0,-1.737l30.609,-0l-0,-19.208l-48.934,-0l-0,16.552l-1.74,-0l-0,-17.676c0.261,-0.323 0.493,-0.653 0.968,-0.618l50.478,-0c0.475,-0.035 0.707,0.295 0.968,0.618" style="fill:#fff;fill-rule:nonzero;"/><path d="M50.674,50.582l-0,-6.794c-0,-0.645 -0.841,-1.514 -1.435,-1.736c-0.628,-0.235 -3.289,-0.249 -3.972,-0.085c-0.549,0.132 -1.554,1.06 -1.554,1.616l-0,6.999l6.961,0Zm-3.917,-15.71c-3.371,0.533 -2.623,5.778 0.975,5.162c3.127,-0.535 2.458,-5.704 -0.975,-5.162m-4.17,17.447c-0.295,-0.234 -0.628,-0.3 -0.616,-0.764c0.432,-3.011 -1.085,-8.141 1.279,-10.375c0.165,-0.155 0.731,-0.464 0.764,-0.573c0.064,-0.214 -0.368,-0.567 -0.508,-0.802c-2.301,-3.837 1.658,-8.169 5.637,-6.239c2.623,1.274 3.178,4.907 1.123,6.954l-0.001,0.15c0.767,0.246 1.288,0.962 1.693,1.632l0.456,1.23l-0,8.787l-9.827,0Z" style="fill:#fff;fill-rule:nonzero;"/><path d="M36.649,50.582l-0,-6.999c-0,-0.58 -0.992,-1.48 -1.555,-1.616c-0.682,-0.164 -3.343,-0.15 -3.971,0.085c-0.469,0.175 -0.918,0.556 -1.149,0.999c-0.044,0.086 -0.286,0.697 -0.286,0.737l-0,6.794l6.961,0Zm-1.572,-11.275c2.344,-2.37 -1.198,-6.098 -3.7,-3.744c-2.52,2.371 1.22,6.25 3.7,3.744m-6.515,13.012c-0.286,-0.241 -0.613,-0.442 -0.617,-0.866c0.203,-2.463 -0.269,-5.345 0.014,-7.757c0.145,-1.242 1.016,-2.527 2.139,-3.077c-2.523,-2.683 -0.982,-7.303 2.81,-7.512c4.019,-0.223 6.122,4.489 3.428,7.413l0.053,0.153c1.012,0.554 1.853,1.653 1.989,2.819c0.293,2.506 -0.197,5.503 0.013,8.063c0.012,0.464 -0.321,0.53 -0.616,0.764l-9.213,0Z" style="fill:#fff;fill-rule:nonzero;"/><rect x="31.429" y="9.611" width="17.505" height="1.737" style="fill:#fff;"/><rect x="27.948" y="14.822" width="17.505" height="1.737" style="fill:#fff;"/><rect x="28.869" y="4.401" width="17.403" height="1.737" style="fill:#fff;"/></svg>