<svg width="1302.000000" height="632.716919" viewBox="0 0 1302 632.717" fill="none" xmlns="http://www.w3.org/2000/svg" xmlns:xlink="http://www.w3.org/1999/xlink">
	<g style="mix-blend-mode:normal">
		<path d="M1302 0.11L854.09 0.11C854.09 0.11 739.47 -5.72 675.65 65.13C611.83 135.98 622.1 188.39 400.21 187.76C178.31 187.12 66 187.76 66 187.76L44 187.76C44 187.76 -0.08 190.24 0 235.36C0.07 280.49 0 632.71 0 632.71L1302 632.71L1302 0.11Z" fill="#0B2A33" fill-opacity="1.000000" fill-rule="nonzero"/>
		<path d="M854.09 0.11C854.09 0.11 739.47 -5.72 675.65 65.13C611.83 135.98 622.1 188.39 400.21 187.76C178.31 187.12 66 187.76 66 187.76L44 187.76C44 187.76 -0.08 190.24 0 235.36C0.07 280.49 0 632.71 0 632.71L1302 632.71L1302 0.11L854.09 0.11Z" stroke="#707070" stroke-opacity="0" stroke-width="1.000000"/>
	</g>
</svg>
