<svg width="1302.000000" height="632.717041" viewBox="0 0 1302 632.717" fill="none" xmlns="http://www.w3.org/2000/svg" xmlns:xlink="http://www.w3.org/1999/xlink">
	<g style="mix-blend-mode:normal">
		<path d="M0 0.11L447.9 0.11C447.9 0.11 562.52 -5.72 626.34 65.13C690.16 135.98 679.89 188.39 901.78 187.76C1123.68 187.12 1236 187.76 1236 187.76L1258 187.76C1258 187.76 1302.06 190.24 1302 235.36C1301.93 280.49 1302 632.71 1302 632.71L0 632.71L0 0.11Z" fill="#FCFCFC" fill-opacity="1.000000" fill-rule="nonzero"/>
		<path d="M447.9 0.11C447.9 0.11 562.52 -5.72 626.34 65.13C690.16 135.98 679.89 188.39 901.78 187.76C1123.68 187.12 1236 187.76 1236 187.76L1258 187.76C1258 187.76 1302.06 190.24 1302 235.36C1301.93 280.49 1302 632.71 1302 632.71L0 632.71L0 0.11L447.9 0.11Z" stroke="#707070" stroke-opacity="0" stroke-width="1.000000"/>
	</g>
</svg>
